<svg id="Capa_1" enable-background="new 0 0 512 512" height="512" viewBox="0 0 512 512" width="512" xmlns="http://www.w3.org/2000/svg"><g><path d="m194.903 96.316c8.487 25.827 26.968 47.756 52.069 60.306 28.736 11.475 48.943 31.316 60.215 54.378h67.855c-12.182-40.243-40.408-74.547-79.178-93.932-21.045-9.316-41.753-21.855-42.135-51.452v-65.616c-33.927 0-61.672 26.404-63.846 59.781l-126.529 119.594h43.673z"/><path d="m246.972 355.378c-25.101 12.55-43.581 34.479-52.069 60.306l-87.875-83.059h-43.674l126.528 119.593c2.174 33.378 29.919 59.782 63.847 59.782v-65.616c.393-25.319 15.892-40.553 42.135-51.452 38.77-19.385 66.995-53.689 79.178-93.932h-67.611c-11.046 22.605-31.051 42.307-60.459 54.378z"/><path d="m455.093 206.352-19.801 22.537 13.785 12.111h-351.104l-12.411-31.625h-85.166l18.299 46.625-18.299 46.625h85.166l12.411-31.625h351.104l-13.785 12.111 19.801 22.537 56.511-49.648z"/></g></svg>