<svg xmlns="http://www.w3.org/2000/svg" width="32.001" height="32" viewBox="0 0 32.001 32">
  <g id="edit" transform="translate(312 -670.501)">
    <path id="Union_8" data-name="Union 8" d="M-882,544.484a4.005,4.005,0,0,1-4-4V521.817a4.005,4.005,0,0,1,4-4h10.667A1.333,1.333,0,0,1-870,519.15a1.333,1.333,0,0,1-1.333,1.333H-882a1.335,1.335,0,0,0-1.333,1.333v18.667A1.335,1.335,0,0,0-882,541.817h18.667A1.335,1.335,0,0,0-862,540.484V529.817a1.333,1.333,0,0,1,1.333-1.333h0a1.332,1.332,0,0,1,1.333,1.333v10.667a4,4,0,0,1-4,4Zm7.559-11.558a.669.669,0,0,1-.183-.6l.943-4.715a.674.674,0,0,1,.183-.34l10.551-10.55,4.714,4.713-10.55,10.55a.664.664,0,0,1-.341.183l-4.714.943a.629.629,0,0,1-.131.013A.667.667,0,0,1-874.441,532.927Zm12.907-17.622,1.845-1.845a3.336,3.336,0,0,1,4.714,0,3.312,3.312,0,0,1,.976,2.357,3.306,3.306,0,0,1-.976,2.356l-1.845,1.846Z" transform="translate(574 158.017)" fill="#666"/>
  </g>
</svg>
