<svg xmlns="http://www.w3.org/2000/svg" width="35" height="35" viewBox="0 0 35 35">
  <g id="event" transform="translate(-1236 324)">
    <path id="Union_11" data-name="Union 11" d="M4.512,35A4.517,4.517,0,0,1,0,30.488V7.246A4.517,4.517,0,0,1,4.512,2.734H7.656V1.094a1.093,1.093,0,1,1,2.187,0V2.734H25.156V1.094a1.094,1.094,0,0,1,2.188,0V2.734h3.145A4.517,4.517,0,0,1,35,7.246V30.488A4.517,4.517,0,0,1,30.488,35ZM2.188,12.373V30.488a2.324,2.324,0,0,0,2.324,2.324H30.488a2.324,2.324,0,0,0,2.324-2.324V12.373a.342.342,0,0,0-.341-.342H2.529A.342.342,0,0,0,2.188,12.373ZM13.4,27.871V25.8a4.705,4.705,0,0,0,2.653.881,3.283,3.283,0,0,0,2.18-.691,2.28,2.28,0,0,0,.826-1.841,2.08,2.08,0,0,0-.84-1.763,3.954,3.954,0,0,0-2.408-.631q-.539,0-2.18.112l.472-6.995h6.55v1.837H15.9l-.223,3.33Q16.315,20,16.834,20A4.59,4.59,0,0,1,20.1,21.09a3.877,3.877,0,0,1,1.156,2.969,4.059,4.059,0,0,1-1.322,3.168A5.226,5.226,0,0,1,16.3,28.419,6,6,0,0,1,13.4,27.871Z" transform="translate(1236 -324)" fill="#e7a33e"/>
  </g>
</svg>
