<svg id="Inicio" xmlns="http://www.w3.org/2000/svg" width="36.823" height="35" viewBox="0 0 36.823 35">
  <g id="home">
    <path id="Union_2" data-name="Union 2" d="M22.156,35a1.083,1.083,0,0,1-1.083-1.083V24.759H15.751v9.158A1.083,1.083,0,0,1,14.668,35H5.612a1.083,1.083,0,0,1-1.083-1.083V18.834H1.89A1.888,1.888,0,0,1,.618,15.55L17.14.5a1.88,1.88,0,0,1,2.544,0L36.2,15.55a1.888,1.888,0,0,1-1.271,3.284H32.294V33.917A1.083,1.083,0,0,1,31.211,35ZM24.739,2.162h7.273a1.083,1.083,0,0,1,1.083,1.083V9.759Z" fill="#666"/>
  </g>
</svg>
