<svg xmlns="http://www.w3.org/2000/svg" width="34.133" height="30" viewBox="0 0 34.133 30">
  <g id="Empleos" transform="translate(-5.408)">
    <g id="jobs" transform="translate(5.408)">
      <path id="Union_5" data-name="Union 5" d="M3,30a3,3,0,0,1-3-3V5.161L3.6,15.949A3,3,0,0,0,6.441,18h5.625v1a1,1,0,0,0,1,1h8a1,1,0,0,0,1-1V18h5.625a3,3,0,0,0,2.846-2.051l3.6-10.788V27a3,3,0,0,1-3,3ZM14.067,18V16h6v2Zm8-2V15a1,1,0,0,0-1-1h-8a1,1,0,0,0-1,1v1H6.441a1,1,0,0,1-.949-.684L1.721,4h8.346V3a3,3,0,0,1,3-3h8a3,3,0,0,1,3,3V4h8.346L28.641,15.316a1,1,0,0,1-.949.684Zm-10-13V4h10V3a1,1,0,0,0-1-1h-8A1,1,0,0,0,12.067,3Z" fill="#666"/>
    </g>
  </g>
</svg>
