<svg xmlns="http://www.w3.org/2000/svg" width="29.167" height="35" viewBox="0 0 29.167 35">
  <g id="Notificaciones" transform="translate(-20.3)">
    <g id="notifications" transform="translate(20.3)">
      <path id="Union_6" data-name="Union 6" d="M9.226,30.625H19.941a5.468,5.468,0,0,1-10.716,0ZM2.552,29.167a2.552,2.552,0,0,1-1.659-4.49A9.78,9.78,0,0,0,4.375,17.19V13.125A10.215,10.215,0,0,1,13.125,3.033V1.458a1.458,1.458,0,0,1,2.917,0V3.033a10.217,10.217,0,0,1,8.751,10.092V17.19a9.769,9.769,0,0,0,3.469,7.475,2.552,2.552,0,0,1-1.646,4.5Z" fill="#666"/>
    </g>
  </g>
</svg>
