<svg xmlns="http://www.w3.org/2000/svg" width="35" height="25" viewBox="0 0 35 25">
  <g id="picture" transform="translate(0 -68.267)">
    <path id="Union_9" data-name="Union 9" d="M-575.25,458.267a3.75,3.75,0,0,1-3.75-3.75v-17.5a3.75,3.75,0,0,1,3.75-3.75h27.5a3.75,3.75,0,0,1,3.75,3.75v17.5a3.75,3.75,0,0,1-3.75,3.75Zm4.634-12.134,4.116,4.116,10.366-10.366a1.25,1.25,0,0,1,1.767,0l7.866,7.866h0V437.017a1.25,1.25,0,0,0-1.25-1.25h-27.5a1.25,1.25,0,0,0-1.25,1.25V450.25l4.116-4.116a1.246,1.246,0,0,1,.884-.366A1.246,1.246,0,0,1-570.616,446.133Zm-.884-4.116a3.75,3.75,0,0,1,3.75-3.75,3.75,3.75,0,0,1,3.75,3.75,3.75,3.75,0,0,1-3.75,3.75A3.75,3.75,0,0,1-571.5,442.017Z" transform="translate(579 -365)" fill="#70b5f9"/>
  </g>
</svg>
