<svg xmlns="http://www.w3.org/2000/svg" width="35" height="35" viewBox="0 0 35 35">
  <g id="Productos" transform="translate(-15)">
    <g id="products" transform="translate(15)">
      <path id="Union_7" data-name="Union 7" d="M27.708,35a1.459,1.459,0,0,1-1.458-1.458V27.708a1.459,1.459,0,0,1,1.458-1.458h5.834A1.459,1.459,0,0,1,35,27.708v5.834A1.459,1.459,0,0,1,33.542,35ZM14.583,35a1.459,1.459,0,0,1-1.458-1.458V27.708a1.459,1.459,0,0,1,1.458-1.458h5.834a1.459,1.459,0,0,1,1.458,1.458v5.834A1.459,1.459,0,0,1,20.417,35ZM1.458,35A1.459,1.459,0,0,1,0,33.542V27.708A1.459,1.459,0,0,1,1.458,26.25H7.292A1.459,1.459,0,0,1,8.75,27.708v5.834A1.459,1.459,0,0,1,7.292,35Zm26.25-13.125a1.459,1.459,0,0,1-1.458-1.458V14.583a1.459,1.459,0,0,1,1.458-1.458h5.834A1.459,1.459,0,0,1,35,14.583v5.834a1.459,1.459,0,0,1-1.458,1.458Zm-13.125,0a1.459,1.459,0,0,1-1.458-1.458V14.583a1.459,1.459,0,0,1,1.458-1.458h5.834a1.459,1.459,0,0,1,1.458,1.458v5.834a1.459,1.459,0,0,1-1.458,1.458Zm-13.125,0A1.459,1.459,0,0,1,0,20.417V14.583a1.459,1.459,0,0,1,1.458-1.458H7.292A1.459,1.459,0,0,1,8.75,14.583v5.834a1.459,1.459,0,0,1-1.458,1.458ZM27.708,8.75A1.459,1.459,0,0,1,26.25,7.292V1.458A1.459,1.459,0,0,1,27.708,0h5.834A1.459,1.459,0,0,1,35,1.458V7.292A1.459,1.459,0,0,1,33.542,8.75Zm-13.125,0a1.459,1.459,0,0,1-1.458-1.458V1.458A1.459,1.459,0,0,1,14.583,0h5.834a1.459,1.459,0,0,1,1.458,1.458V7.292A1.459,1.459,0,0,1,20.417,8.75Zm-13.125,0A1.459,1.459,0,0,1,0,7.292V1.458A1.459,1.459,0,0,1,1.458,0H7.292A1.459,1.459,0,0,1,8.75,1.458V7.292A1.459,1.459,0,0,1,7.292,8.75Z" transform="translate(0)" fill="#666"/>
    </g>
  </g>
</svg>
