<svg xmlns="http://www.w3.org/2000/svg" width="35" height="24.506" viewBox="0 0 35 24.506">
  <g id="video" transform="translate(-726.001 -239)">
    <path id="video-2" data-name="video" d="M34.28-2.247a4.385,4.385,0,0,0-3.085-3.085C28.456-6.082,17.5-6.082,17.5-6.082s-10.955,0-13.694.721A4.474,4.474,0,0,0,.721-2.247,46.2,46.2,0,0,0,0,6.171a46.033,46.033,0,0,0,.721,8.418,4.385,4.385,0,0,0,3.085,3.085c2.767.75,13.694.75,13.694.75s10.955,0,13.694-.721a4.385,4.385,0,0,0,3.085-3.085A46.217,46.217,0,0,0,35,6.2s.029-5.708-.721-8.447ZM14.012,11.418V.924l9.11,5.247Zm0,0" transform="translate(726 245.082)" fill="#7fc15e"/>
  </g>
</svg>
