<svg id="write-article" xmlns="http://www.w3.org/2000/svg" width="35" height="35.001" viewBox="0 0 35 35.001">
  <path id="Union_10" data-name="Union 10" d="M1.093,35a1.094,1.094,0,0,1,0-2.188H33.906a1.094,1.094,0,0,1,0,2.188Zm0-4.375a1.094,1.094,0,0,1,0-2.188H33.906a1.094,1.094,0,0,1,0,2.188Zm18.958-4.376a1.093,1.093,0,1,1,0-2.187H33.906a1.093,1.093,0,1,1,0,2.187Zm-17.5,0A2.554,2.554,0,0,1,0,23.7V17.865a2.555,2.555,0,0,1,2.552-2.552H13.489a2.555,2.555,0,0,1,2.553,2.552V23.7a2.555,2.555,0,0,1-2.553,2.552Zm17.5-4.375a1.094,1.094,0,0,1,0-2.188H33.906a1.094,1.094,0,0,1,0,2.188Zm0-4.375a1.094,1.094,0,0,1,0-2.188H33.906a1.094,1.094,0,0,1,0,2.188Zm-17.5-4.376A2.554,2.554,0,0,1,0,10.574V2.553A2.556,2.556,0,0,1,2.552,0h29.9A2.556,2.556,0,0,1,35,2.553v8.021a2.554,2.554,0,0,1-2.552,2.552Z" transform="translate(0)" fill="#f5987e"/>
</svg>
